<svg xmlns="http://www.w3.org/2000/svg" viewBox="0 0 500 500"><g id="freepik--background-complete--inject-82"><rect x="67.75" y="389.99" width="32.41" height="11.19" style="fill:#ebebeb"></rect><rect x="346.16" y="146.65" width="32.41" height="11.19" style="fill:#ebebeb"></rect><path d="M82.08,415.29c-9.61.15-22.91.46-32.41.45h-.45v-.45l0-11.19v-.5h.5c9.56,0,23,.09,32.41.25h.26v.25l-.25,11.19Zm0,0-.25-11.19.25.25c-5.4.06-10.8.16-16.21.18l-16.2.07.5-.5-.05,11.19-.45-.46c9.3,0,23,.29,32.41.46Z" style="fill:#ebebeb"></path><path d="M178.63,209.61c-9.62.16-22.91.47-32.41.46h-.45v-.46l0-11.19v-.5h.5c9.55,0,23,.09,32.41.25h.25v.24l-.25,11.19Zm0,0-.25-11.19.25.25c-5.4.06-10.81.16-16.21.19l-16.2.06.5-.5-.05,11.19-.45-.45c9.3,0,22.94.29,32.41.45Z" style="fill:#ebebeb"></path><rect x="128.14" y="212.53" width="32.41" height="11.19" style="fill:#ebebeb"></rect><path d="M142.54,209.61c-9.61.16-22.91.47-32.41.46h-.45v-.46l-.05-11.19v-.5h.5c9.56,0,23,.09,32.41.25h.26v.24l-.25,11.19Zm0,0-.25-11.19.25.25c-5.4.06-10.8.16-16.21.19l-16.2.06.5-.5,0,11.19-.45-.45c9.3,0,23,.29,32.41.45Z" style="fill:#ebebeb"></path><path d="M450.33,415.29c-9.61.15-22.91.46-32.41.45h-.45v-.45l-.05-11.19v-.5h.5c9.56,0,23,.09,32.41.25h.26v.25l-.25,11.19Zm0,0-.25-11.19.25.25c-5.4.06-10.8.16-16.2.18l-16.21.07.5-.5-.05,11.19-.45-.46c9.31,0,22.95.29,32.41.46Z" style="fill:#ebebeb"></path><path d="M432.25,57.88c-9.61.16-22.91.47-32.41.46h-.45v-.46l-.05-11.18v-.51h.5c9.56,0,23,.08,32.41.24h.26v.25l-.25,11.18Zm0,0L432,46.7l.25.25c-5.4,0-10.8.15-16.2.18l-16.21.06.5-.49,0,11.18-.45-.45c9.31,0,23,.29,32.41.45Z" style="fill:#ebebeb"></path><rect x="417.92" y="60.81" width="32.41" height="11.19" style="fill:#ebebeb"></rect><rect x="57.8" y="46.7" width="32.41" height="11.19" style="fill:#ebebeb"></rect></g><g id="freepik--Floor--inject-82"><polygon points="44.45 451.3 95.84 451.06 147.23 450.97 250 450.8 352.77 450.97 404.16 451.06 455.55 451.3 404.16 451.55 352.77 451.63 250 451.8 147.23 451.63 95.84 451.55 44.45 451.3" style="fill:#263238"></polygon></g><g id="freepik--Character--inject-82"><polygon points="318.37 327.51 368.82 327.51 394.69 183.58 348.5 162.36 318.37 327.51" style="fill:#FFC727"></polygon><g style="opacity:0.4"><polygon points="318.37 327.51 368.82 327.51 394.69 183.58 348.5 162.36 318.37 327.51"></polygon></g><polygon points="182.21 327.51 318.37 327.51 348.5 162.36 212.34 162.36 182.21 327.51" style="fill:#FFC727"></polygon><polygon points="182.21 327.51 318.37 327.51 348.5 162.36 212.34 162.36 182.21 327.51" style="opacity:0.2"></polygon><rect x="146.44" y="327.52" width="156.69" height="81.4" transform="translate(449.56 736.43) rotate(180)" style="fill:#FFC727"></rect><rect x="146.44" y="327.52" width="156.69" height="81.4" transform="translate(449.56 736.43) rotate(180)" style="opacity:0.2"></rect><rect x="146.44" y="292.32" width="156.69" height="35.52" transform="translate(449.56 620.17) rotate(180)" style="fill:#FFC727"></rect><rect x="146.44" y="292.32" width="156.69" height="35.52" transform="translate(449.56 620.17) rotate(180)" style="opacity:0.2"></rect><polygon points="146.44 408.92 167.56 408.92 199.03 235.29 146.44 235.29 146.44 408.92" style="fill:#FFC727"></polygon><g style="opacity:0.4"><polygon points="146.44 408.92 167.56 408.92 199.03 235.29 146.44 235.29 146.44 408.92"></polygon></g><rect x="103.96" y="235.29" width="42.48" height="173.63" transform="translate(250.39 644.21) rotate(180)" style="fill:#FFC727"></rect><rect x="103.96" y="235.29" width="42.48" height="173.63" transform="translate(250.39 644.21) rotate(180)" style="opacity:0.2"></rect><rect x="345.6" y="235.29" width="77.31" height="173.63" transform="translate(768.51 644.21) rotate(180)" style="fill:#FFC727"></rect><g style="opacity:0.4"><rect x="345.6" y="235.29" width="77.31" height="173.63" transform="translate(768.51 644.21) rotate(180)"></rect></g><rect x="303.12" y="235.29" width="42.48" height="173.63" transform="translate(648.72 644.21) rotate(180)" style="fill:#FFC727"></rect><rect x="303.12" y="235.29" width="42.48" height="173.63" transform="translate(648.72 644.21) rotate(180)" style="opacity:0.2"></rect><path d="M335.19,235.29l-16-.29-16-.2h-.48v.49l-.18,18.56-.07,33.57c-.05,12.37-.09,24.75,0,37.12s.06,24.76.22,37.13.27,24.75.53,37.13q.4-18.57.54-37.13c.16-12.37.17-24.75.21-37.13s0-24.75,0-37.12l-.07-33.57-.18-18.56-.49.49,16-.2Z" style="fill:#263238"></path><path d="M146.44,235.29c-.33,12.42-.49,39.84-.62,52.26l-.18,37.27.18,37.27.22,18.63.4,18.63.39-18.63.22-18.63.19-37.27-.19-37.27C146.92,275.13,146.77,247.71,146.44,235.29Z" style="fill:#263238"></path><path d="M146.44,327.52c13.74.33,27.48.48,41.22.61l41.23.19,33-.19,20.61-.22,20.61-.39-20.61-.4-20.61-.22-33-.18-41.23.18C173.92,327,160.18,327.19,146.44,327.52Z" style="fill:#263238"></path><path d="M146.44,292.32c13.74.33,27.48.49,41.22.62l41.23.18,33-.18,20.61-.22,20.61-.4-20.61-.39-20.61-.22-33-.19-41.23.19C173.92,291.84,160.18,292,146.44,292.32Z" style="fill:#263238"></path><polygon points="393.53 408.92 394.58 421.77 397.02 451.46 408.21 451.46 410.65 421.77 411.7 408.92 393.53 408.92" style="fill:#c7c7c7"></polygon><polygon points="411.7 408.92 393.53 408.92 394.58 421.77 410.65 421.77 411.7 408.92" style="fill:#a6a6a6"></polygon><polygon points="315.28 408.92 316.32 421.77 318.76 451.46 329.96 451.46 332.4 421.77 333.45 408.92 315.28 408.92" style="fill:#c7c7c7"></polygon><polygon points="333.45 408.92 315.28 408.92 316.32 421.77 332.4 421.77 333.45 408.92" style="fill:#a6a6a6"></polygon><polygon points="193.7 408.92 194.75 421.77 197.19 451.46 208.38 451.46 210.82 421.77 211.87 408.92 193.7 408.92" style="fill:#c7c7c7"></polygon><polygon points="211.87 408.92 193.7 408.92 194.75 421.77 210.82 421.77 211.87 408.92" style="fill:#a6a6a6"></polygon><polygon points="115.43 408.92 116.48 421.77 118.92 451.46 130.11 451.46 132.55 421.77 133.6 408.92 115.43 408.92" style="fill:#c7c7c7"></polygon><polygon points="115.43 408.92 116.48 421.77 132.55 421.77 133.6 408.92 115.43 408.92" style="fill:#a6a6a6"></polygon><g style="opacity:0.2"><path d="M330.49,232.87a.83.83,0,0,1,0,1.65A.83.83,0,0,1,330.49,232.87Z"></path><path d="M329.08,333.87a.83.83,0,0,1,0,1.65A.83.83,0,0,1,329.08,333.87Z"></path><path d="M377.43,182.48c0-.08.08-.17.13-.25a.37.37,0,0,1,.64,0c.05.08.09.17.13.25C378.8,183.46,377,183.46,377.43,182.48Z"></path><path d="M364.15,336a1.92,1.92,0,0,1,.12-.25.37.37,0,0,1,.64,0,1.19,1.19,0,0,1,.13.25C365.51,336.93,363.68,336.93,364.15,336Z"></path><path d="M323.39,237.91a.63.63,0,0,1,0,1.26A.63.63,0,0,1,323.39,237.91Z"></path><path d="M214.13,359.5a.83.83,0,0,1,0,1.65A.83.83,0,0,1,214.13,359.5Z"></path><path d="M285.92,380.5a.63.63,0,0,1,0,1.26A.63.63,0,0,1,285.92,380.5Z"></path><path d="M376.41,301.92a.63.63,0,0,1,0,1.26A.63.63,0,0,1,376.41,301.92Z"></path><path d="M293.63,202.72a.89.89,0,0,1,1.23,0,1.23,1.23,0,0,1,.3,1.2,1,1,0,0,1-1.83,0A1.23,1.23,0,0,1,293.63,202.72Z"></path><path d="M322.16,329.2a.88.88,0,0,1,1.24,0,1.23,1.23,0,0,1,.3,1.19,1,1,0,0,1-1.84,0A1.21,1.21,0,0,1,322.16,329.2Z"></path><path d="M402,382.33a.87.87,0,0,1,1.23,0,1.21,1.21,0,0,1,.3,1.19,1,1,0,0,1-1.83,0A1.21,1.21,0,0,1,402,382.33Z"></path><path d="M177.76,188.51a.83.83,0,0,1,0-1.65A.83.83,0,0,1,177.76,188.51Z"></path><path d="M166.89,337.71a.83.83,0,0,1,0-1.65A.83.83,0,0,1,166.89,337.71Z"></path><path d="M207.93,227.51a.83.83,0,0,1,0-1.65A.83.83,0,0,1,207.93,227.51Z"></path><path d="M131.06,329.92a1.41,1.41,0,0,1-.13.24.37.37,0,0,1-.64,0c0-.08-.09-.16-.12-.24C129.7,328.94,131.53,328.94,131.06,329.92Z"></path><path d="M121.12,259.53a1.49,1.49,0,0,1-.13.25.37.37,0,0,1-.64,0c0-.08-.09-.17-.12-.25C119.76,258.55,121.59,258.55,121.12,259.53Z"></path><path d="M123.72,374.07c0,.08-.08.16-.12.24a.37.37,0,0,1-.64,0c0-.08-.09-.16-.13-.24C122.36,373.09,124.19,373.09,123.72,374.07Z"></path><path d="M233.11,280.18a.87.87,0,0,1-1.23,0,1.21,1.21,0,0,1-.3-1.19,1,1,0,0,1,1.83,0A1.21,1.21,0,0,1,233.11,280.18Z"></path><path d="M113.21,263.25a.89.89,0,0,1-1.23,0,1.21,1.21,0,0,1-.3-1.19,1,1,0,0,1,1.83,0A1.22,1.22,0,0,1,113.21,263.25Z"></path></g><path d="M78,412.63c2.82,1.64,89.56,19.78,93.3,18.38,1.43-.53,4.8-13,8.46-28.2.79-3.28,1.58-6.67,2.37-10.12,5.14-22.4,10.08-46.28,10.08-46.28l-58-12.3-8.48,46.62L123.84,391s-36.32,7.91-40.26,9.89S75.15,411,78,412.63Z" style="fill:#eb9481"></path><path d="M178.32,408.61c-3.09,12.46-5.81,21.94-7,22.4-3.74,1.4-90.49-16.74-93.3-18.39s1.68-9.79,5.6-11.78c2.44-1.21,17.19-4.69,28.14-7.18-9.56,2.29-27.4,8.77,9.5,11.44C151.72,407.32,171.85,408.32,178.32,408.61Z" style="fill:#263238"></path><path d="M156.26,457c3.14.87,91.64-3.7,94.9-6,1.25-.87-2.16-36.4-3.09-39.82C244.93,399.59,230,364.73,230,364.73l-59.21,2.89,24.32,56.73s-33.1,16.9-36.41,19.82S153.11,456.11,156.26,457Z" style="fill:#eb9481"></path><path d="M251.16,451c-3.26,2.32-91.75,6.89-94.91,6s-.87-9.92,2.42-12.83c1.55-1.36,9.55-5.74,17.66-10-10.18,5.73-26.28,18.5,73.91-4.27C251.15,440,251.83,450.52,251.16,451Z" style="fill:#263238"></path><path d="M293.55,282c-17.64,19.65-76.9,4.13-80.45,12-3.12,6.89,37.32,117.64,37.32,117.64l-64.71,7s-55.87-122.31-35.9-157.65c10.79-19.09,58.32-11.48,87-15,8.65-1,12.72-18.9,12.72-18.9h51.25S313.71,259.5,293.55,282Z" style="fill:#263238"></path><path d="M167.8,249.93l54.35,41.59c18-.38,57.55,5.87,71.39-9.57,20.17-22.46,7.24-54.93,7.24-54.93H249.53s-4.07,17.84-12.72,18.89C216.68,248.36,187.29,245.35,167.8,249.93Z" style="fill:#37474f"></path><path d="M183.23,404.09c1.79-.56,18.57-2.43,22.27-2.83,7.41-.8,30.73-3,35-3a.1.1,0,0,1,0,.2c-3.67.77-18.55,2.5-22.25,2.88-7.42.77-32.9,3.24-35,3A.16.16,0,0,1,183.23,404.09Z" style="fill:#37474f"></path><path d="M205.25,287.42c4.16-2.07,35.71-1.05,58.34-3.16,7.38-.7,14.77-2.27,20.4-7.1a33.74,33.74,0,0,0,10.08-16.59c2.17-7.74,1.95-15.8,1.57-23.72-.09-1.95-.22-3.9-.34-5.85,0-.11.19-.13.2,0,1.72,14.19,3,30-6.19,42.34a29.61,29.61,0,0,1-16.5,10.82c-13.65,3.59-65,2.7-66.78,4.09-2.16,1.65,31,102.66,31.68,104.58.13.36-.51.61-.66.25C233.78,385.31,201.63,289.22,205.25,287.42Z" style="fill:#37474f"></path><path d="M147.49,264.3c3-7.75,10-12.57,20.25-14.42.17,0,.16.23,0,.27-8.93,2.62-15.32,6.21-18.83,13.75-1.64,3.52-2.49,8.47-2.92,15.1-2.12,33.07,26.74,108.15,27.33,109.46a.1.1,0,0,1-.18.09C169.07,381.71,134.89,296.27,147.49,264.3Z" style="fill:#37474f"></path><path d="M124.09,377.76l49,10.42S134.43,272.8,152.59,257.91c5-4.13,16-5.57,29,.06,19.47,8.41,42,25.56,63.25,31.83,19.9,5.87,43.52.47,51.65-8.48,17.08-18.79,4.23-54.32,4.23-54.32l-70.47-2.64s1,.85-2.31,3.83c0,0-41.42-9.39-59.42,1.61C136.1,249.63,124.09,377.76,124.09,377.76Z" style="fill:#263238"></path><path d="M270.33,231.12a.13.13,0,0,1,.25,0,39.42,39.42,0,0,0,.61,7.9,13.6,13.6,0,0,0,3.54,6.57c3.86,3.91,9.41,5.24,14.47,6.83.27.09.22.56-.08.51-5.62-.86-11.53-2.28-15.64-6.5a13.71,13.71,0,0,1-3.63-7.07A16.84,16.84,0,0,1,270.33,231.12Z" style="fill:#37474f"></path><path d="M153.81,255.71c7.53-4.73,19.31-1.14,24.95,1,.12,0,.06.24-.06.19-5.18-1.86-18.09-4.69-25,.2-16,11.3,5.39,88.55,19.39,131.06.21.67-.31.49-.61-.15-2.3-5-20.34-58.76-25.05-94.31C146.72,288.26,143,262.52,153.81,255.71Z" style="fill:#37474f"></path><path d="M129.68,364.73c1.48,0,14.18,2.76,17,3.39,5.59,1.26,18.56,4.62,21.59,5.78.08,0,0,.19-.06.19-2.91-.28-9.67-1.76-12.45-2.41-5.6-1.3-24.75-5.9-26.15-6.65C129.46,365,129.53,364.73,129.68,364.73Z" style="fill:#37474f"></path><path d="M156.21,253.7c5.07-2.77,11.1-3.22,16.73-2.53a58.45,58.45,0,0,1,17.1,5.35c11.46,5.24,22.38,11.65,33.86,16.86s23.59,9.24,36.17,9.63c10.75.33,24.36-1.57,31.27-11.24,10.65-14.9,4.45-40.59,4.32-42.25,0-.13.17-.12.2,0,8.26,31.58-2.37,43.84-9.54,49-5.7,4.1-13.89,5.13-19.3,5.59-12.51,1.05-25-2-36.65-6.63-11.88-4.73-23-11.11-34.41-16.93C185,255,172.87,249.2,160.4,252.4a30.77,30.77,0,0,0-4.15,1.42C156.19,253.85,156.14,253.74,156.21,253.7Z" style="fill:#37474f"></path><path d="M257.58,168.81c-13.6,24-28.49,45-41.52,47.67-13.9,2.82-42.5-24.77-49.26-34.43-2.5-3.57,24.2-18.15,27.77-15.15,6.72,5.64,19.54,14.27,21.7,13.91s18.23-12.87,35.19-26.05C261.74,146.77,267,152.18,257.58,168.81Z" style="fill:#eb9481"></path><path d="M169.93,186.24s-13.28-17.59-15.61-22-10.46-23.24-6.39-25.85c5.42-3.48,14.72,18.05,15.8,19.11s21.76,3.55,26.72,6.44a32.4,32.4,0,0,1,8.19,6.94S184.24,184.69,169.93,186.24Z" style="fill:#eb9481"></path><polygon points="146.72 116.77 173.56 96.9 190.94 146.12 164.24 162.75 146.72 116.77" style="fill:#37474f"></polygon><path d="M150.07,116.61,172.89,100l.93,1.8,13.44,37.86a58.85,58.85,0,0,0-5.48,6.7c-2.12,3.2-8.28,13.47-15.26,14.11Z" style="fill:#fff"></path><path d="M151.07,119.61s6.05-3,9.13-6.3,6.05-6.89,8.53-8.48,5-3.24,5-3.24l-.82-1.59-22.82,16.61Z" style="fill:#ebebeb"></path><polygon points="202.78 164.44 161.63 164.11 146.72 116.77 189.74 113.62 202.78 164.44" style="fill:#455a64"></polygon><path d="M157.51,131.93c-2.24,2,1,26.87,1.16,28s3,6.14,3,6.14l10.58-3.29s-4.82-9-5-11.71S164.33,125.93,157.51,131.93Z" style="fill:#eb9481"></path><path d="M157.3,147.34c1,6.15,1.78,12.33,2.77,18.48a42.94,42.94,0,0,1-2.77-18.48Z" style="fill:#263238"></path><path d="M171.46,135.64c5.58-2,3.28,10.57,2.13,15.15-1.29,5.14,1,16.16,1,16.16l-11.69.48s0-12,.43-15.76C163.68,148.94,168.43,136.71,171.46,135.64Z" style="fill:#eb9481"></path><path d="M166.19,143.29c-.69,2.89-2,5.89-2.37,8.75a74.71,74.71,0,0,1-.81,9.16,53.59,53.59,0,0,1-.17-9.22c.47-3.12,2-5.9,3.35-8.69Z" style="fill:#263238"></path><path d="M172.72,166.41s2-9.39,3-10.78,6.08-10.48,7.9-10.49,4,4.35,2.93,7.42c-1.64,4.59-2.72,7.2-2.82,8.59s4.77,7,4.77,7Z" style="fill:#eb9481"></path><path d="M176.27,154.76c-1.71,3.75-1.66,7.91-3.55,11.65.35-4,.86-8.57,3.55-11.65Z" style="fill:#263238"></path><path d="M183.73,161.15c1.75,2.43,3.7,4.7,4.77,7.58a17.24,17.24,0,0,1-4.09-5.39,4.92,4.92,0,0,1-.68-2.19Z" style="fill:#263238"></path><path d="M201.6,165.57l-27.83,27.68s27.41,29.78,40.86,26.88,37.09-35,45.91-57.69c6.11-15.7-2.8-13.43-12.33-5.95S216.59,179.3,215.54,179,201.6,165.57,201.6,165.57Z" style="fill:#FFC727"></path><path d="M250.25,182.77l-.14.23a31.13,31.13,0,0,1-10-.25,40.33,40.33,0,0,1-16.91-8.39l.29-.19a40.2,40.2,0,0,0,16.66,8.36A33.29,33.29,0,0,0,250.25,182.77ZM199,168.18l-.65.66a44.67,44.67,0,0,0,5.3-1.23l-.45-.45A40.77,40.77,0,0,1,199,168.18Zm48.48-11.09-.55.42a46.59,46.59,0,0,1,7.31,2.68,38,38,0,0,1,5.91,3.32c.07-.17.14-.35.2-.52A42.88,42.88,0,0,0,247.45,157.09Zm-24.56,58.74a.1.1,0,0,0,.05,0l-.08,0-.53.13c-6.92,1.65-14,2.07-21.13-.51a41.59,41.59,0,0,1-3.92-1.49c.73.49,1.47,1,2.2,1.42a46.76,46.76,0,0,0,6.87,1.85,36.91,36.91,0,0,0,15.76-.81l.64-.16.51-.13Zm0,0,0,0c-5.77-4.32-11.24-9.17-16.71-13.42-5-3.73-10.66-7.86-17.2-7.57a31.07,31.07,0,0,0-11,2.69l.32.32a34.17,34.17,0,0,1,8.05-2.31c7.4-1.43,13.93,3,19.55,7.29,5.4,4.15,10.81,8.88,16.5,13.13l.21.15.21.15.51-.13Z" style="fill:#fff"></path><path d="M260.54,162.44l-.42,1.07c-9.14,22.61-32.24,53.76-45.49,56.62-2.68.58-5.92-.14-9.39-1.67,13.38-18.1,33.48-46.73,48.55-65.76.49-.27,1-.52,1.43-.74l.6-.28.15-.06c.21-.09.42-.18.63-.25s.37-.14.56-.2a7.72,7.72,0,0,1,.84-.24,4.24,4.24,0,0,1,.46-.1,3.78,3.78,0,0,1,.56-.08,3,3,0,0,1,2.72.83,2.11,2.11,0,0,1,.19.23C263,153.38,262.77,156.71,260.54,162.44Z" style="opacity:0.1"></path><path d="M182.35,198.28c4-3.82,19.93-20,23.13-23.74.22-.26.11-.47-.16-.23C193,185.44,186,194.17,182.21,198.11,182.11,198.21,182.25,198.37,182.35,198.28Z" style="fill:#263238"></path><path d="M229.71,228.51,305.59,235s-7.81-35.58-18.89-63.68c-11.88-30.09-27.95-22.08-33.65-17.29-6.76,5.67-20.14,27-21.14,31.18-1.65,6.86,4.07,14.68,4.07,14.68Z" style="fill:#FFC727"></path><path d="M259.23,200a62.77,62.77,0,0,0-9.4.31c-1.55.18-3.08.44-4.62.73-.76.15-1.52.27-2.29.38a9.9,9.9,0,0,1-2.43.14.06.06,0,1,0,0,.11,17.49,17.49,0,0,0,2.28.26,16.73,16.73,0,0,0,2.24-.13c1.57-.17,3.13-.42,4.7-.61,3.18-.39,6.34-.77,9.54-.93C259.38,200.24,259.38,200,259.23,200Z" style="fill:#263238"></path><path d="M266.53,203.74a70.25,70.25,0,0,0-7.64-1.38c-1.29-.15-2.57-.23-3.87-.27-.62,0-1.23,0-1.85,0s-1.37.08-2,.07c-.07,0-.08.11,0,.11.64,0,1.28.17,1.92.24l1.92.2c1.29.14,2.57.29,3.86.41,2.57.25,5.13.53,7.7.87C266.65,204,266.66,203.77,266.53,203.74Z" style="fill:#263238"></path><path d="M287.53,173.44a60.56,60.56,0,0,0-9.4,1.79l-.77.21c-5.31,1.45-10.58,3.37-15.78,5-6.89,2.06-14.23,3.78-21.43,2.34a36.09,36.09,0,0,1-6.25-1.95l.13-.24a36,36,0,0,0,6.16,2c12.21,2.29,24.4-3.71,36.74-7.3l.75-.22a61.1,61.1,0,0,1,9.69-2C287.42,173.16,287.47,173.3,287.53,173.44Zm2,5.37a30.67,30.67,0,0,1-7.56-2,41.42,41.42,0,0,1-3.84-1.62l-.45-.22c-10.66-5.27-15.4-13.17-28.21-17.32l-.39.47a52.31,52.31,0,0,1,5.13,2c6.67,2.95,11.9,8.12,17.87,12.21a39.84,39.84,0,0,0,4.85,2.83,3.42,3.42,0,0,0,.43.21,44.17,44.17,0,0,0,9.69,3.37c.88.2,1.77.35,2.65.47C289.64,179.13,289.58,179,289.53,178.81Zm-6,36.33-.23-.18a41.5,41.5,0,0,0-18.89-9.09c-7.25-1.18-14.52.81-21.33,3.12-3.27,1.13-6.56,2.39-9.87,3.58l-.07.3c10.41-3.86,20.7-8.36,31.23-6.78a41.33,41.33,0,0,1,18.62,9l.22.18c6.75,5.52,12.48,12.61,18.14,19.31l.7.06C296.25,227.94,290.4,220.73,283.52,215.14Zm15.17-7.33a67.47,67.47,0,0,0-15.4,7.15l-.31.18c-9.81,5.78-19.34,12.38-30.26,12.73-7.91,0-14.95-2.61-21.47-6.42l-.08.36c6.56,3.77,13.63,6.32,21.55,6.29,7.34-.15,14.14-3.41,20.43-6.91,3.34-1.88,6.67-3.93,10.05-5.87l.32-.18a69.21,69.21,0,0,1,15.29-6.89Z" style="fill:#fff"></path><path d="M278.52,156.61c23.11,22.17,52.31,65.26,47.3,75.12-5.58,11-37.39-19-37.32-20.89.05-1.41-11.73-27.23-20.66-48.18S272.81,151.12,278.52,156.61Z" style="fill:#eb9481"></path><path d="M288.29,210.88c-1-3.08-17.05-38.08-21.67-50.1s-.75-15.9,11.8-5.11,39.68,42.39,46.34,62c6.42,18.83-2.7,20.92-15.85,12.52C298.15,223.26,288.29,210.88,288.29,210.88Z" style="fill:#FFC727"></path><path d="M295.63,173.45c-5.87-.68-11.71.25-17.5,1.78l-.77.21c-1.36.37-2.72.77-4.07,1.2a2.72,2.72,0,0,1-.11-.25c1.25-.41,2.5-.8,3.75-1.16l.75-.22c5.8-1.63,11.64-2.69,17.53-2Zm4.38,5.2a34.33,34.33,0,0,1-18-1.8,41.42,41.42,0,0,1-3.84-1.62l-.45-.22a48.91,48.91,0,0,1-6.92-4.22c.13.32.27.64.41,1l.91.64a39.84,39.84,0,0,0,4.85,2.83,3.42,3.42,0,0,0,.43.21,44.17,44.17,0,0,0,9.69,3.37,35.08,35.08,0,0,0,13.27.22Zm20.66,29.79a44.23,44.23,0,0,0-12.88-1.94c-6.71,0-12.85,2.23-18.77,5.27l.23.28c7.43-3.7,15.22-6.17,23.92-4.73a42.54,42.54,0,0,1,7.87,1.83Z" style="fill:#fff"></path><path d="M290.34,215.8c-1.36-3.61-2.78-7.2-4.2-10.78s-2.9-7.14-4.34-10.71l-4.47-10.67-2.27-5.32c-.78-1.76-1.54-3.53-2.33-5.29.67,1.81,1.38,3.6,2.07,5.4l2.13,5.37,4.34,10.72c1.49,3.56,3,7.12,4.47,10.67S288.76,212.28,290.34,215.8Z" style="fill:#263238"></path><path d="M276,181.36a21.44,21.44,0,0,0-1.58-2.6c-.29-.41-.59-.82-.9-1.22s-.63-.79-.95-1.19a13,13,0,0,0,1.5,2.65A18.23,18.23,0,0,0,276,181.36Z" style="fill:#263238"></path><path d="M325.6,232.58c-6.15,6.8-19,6.94-55.3,9.43-5,.35-18-35.11-12.65-35.76,6.72-.81,33-2.5,34.93-2.38C308.92,204.87,329.76,228,325.6,232.58Z" style="fill:#eb9481"></path><path d="M269.82,207.11s-13.51-2.48-22.43-3.68c-5-.67-13.6-1.06-17.48.12-5.8,1.76-28.94,12.84-26.37,18.51,2.32,5.13,21-6.91,21-6.91s-19.91,10.48-16,16.15,23.22-10.75,23.22-10.75S211.55,231.78,216.52,237c3.77,3.93,22.07-9.95,22.07-9.95s-17.31,9.78-13.62,14c4.09,4.65,21.79-7.1,21.79-7.1C258,243,267,242.79,273.43,241.85,275,241.62,269.82,207.11,269.82,207.11Z" style="fill:#eb9481"></path><path d="M231.19,211.08c-2.39,1.15-4.81,2.29-7.08,3.65s-4.51,2.79-6.64,4.35a44.39,44.39,0,0,0-7.74,6.86c4.43-4.27,12.5-9.25,14.77-10.6s4.47-2.82,6.74-4.18C231.3,211.13,231.24,211.05,231.19,211.08Z" style="fill:#263238"></path><path d="M236.23,219.2c-3,1.6-6,3.07-8.91,4.8s-5.5,3.61-8.27,5.52c-.21.15-.06.22.16.08,2.84-1.81,5.61-3.25,8.48-5s5.66-3.65,8.58-5.31C236.32,219.24,236.27,219.18,236.23,219.2Z" style="fill:#263238"></path><path d="M241.81,225.39a75.6,75.6,0,0,0-13.06,8.39c-.21.15,0,.21.21.07,4.29-2.87,7.64-5.15,12.93-8.29C242,225.51,241.91,225.35,241.81,225.39Z" style="fill:#263238"></path><path d="M261.8,205.14l26.68,38.41s31.88-3.43,37.51-10.89c3.7-4.91-16.84-29.15-35-28.89Z" style="fill:#FFC727"></path><path d="M307.16,240.46l-.58.13-1-1.06c-7.12-8-14-17.32-22.39-24.21l-.22-.18a41.33,41.33,0,0,0-18.62-9c-.69-.1-1.37-.18-2.06-.23l-.18-.26q1.14.09,2.28.27A41.5,41.5,0,0,1,283.29,215l.23.18c8.43,6.85,15.33,16.14,22.46,24Zm-3.85-33.64c-7.11,1-13.63,4.39-20,8.14l-.31.18c-3.38,2-6.71,4.07-10.09,6l.11.17.15-.08c3.34-1.88,6.67-3.93,10.05-5.87l.32-.18c6.52-3.73,13.24-7,20.52-8C303.8,207.05,303.56,206.93,303.31,206.82Z" style="fill:#fff"></path><path d="M311.57,212.05c-2.61-2.44-10.1-8.31-20.58-8.31-.09,0-.11.15,0,.16,7.81.75,17.8,6.14,20.52,8.27C311.56,212.23,311.64,212.12,311.57,212.05Z" style="fill:#263238"></path><path d="M297.68,238.83c-2.71-4.38-5.64-8.61-8.59-12.84s-5.9-8.46-9-12.61c-1.73-2.35-3.44-4.7-5.25-7-.05-.06-.16,0-.12.07,2.7,4.38,5.63,8.63,8.55,12.86s5.89,8.47,8.9,12.66c1.7,2.36,3.44,4.7,5.25,7C297.55,239.08,297.76,239,297.68,238.83Z" style="fill:#263238"></path><path d="M261.8,204.68a44.2,44.2,0,0,1,6-.59c2-.13,4-.21,6-.28,4-.14,12.42-.89,19.64,0,.08,0-.38.35-.46.33-3.41-.62-28.66,1.2-30.7,1.09a2.11,2.11,0,0,1,.17.44c0,.1-.09.22-.19.13s-.38-.43-.6-.65A.29.29,0,0,1,261.8,204.68Z" style="fill:#263238"></path><path d="M321,236.72A25.19,25.19,0,0,1,317,238c-1.34.35-2.69.63-4.05.92-2.71.55-5.43,1.06-8.15,1.55-5.45,1-10.92,1.91-16.38,3l.12,0-2.17-2.54,2,2.7,0,.05h.08c2.77-.17,5.54-.47,8.3-.82s5.5-.79,8.24-1.3,5.46-1.09,8.15-1.82c1.35-.36,2.69-.77,4-1.24A18.25,18.25,0,0,0,321,236.72Z" style="fill:#263238"></path><path d="M269.32,153.86c-.31,1.35-6.63,10.09-12.75,9.85-2-.08-2-11-2-11l-.19-.81-2.61-11.26,13.18-8.6,1.91-1.14s.51,3.13,1.11,7c0,.18.05.36.08.55s.08.43.11.63c.1.59.19,1.18.28,1.77s.13.89.18,1.37.11.94.18,1.42A74.48,74.48,0,0,1,269.32,153.86Z" style="fill:#eb9481"></path><path d="M267.93,138a23.17,23.17,0,0,1-13.59,14l-2.61-11.26,13.18-8.6,1.91-1.14S267.33,134.05,267.93,138Z" style="fill:#263238"></path><path d="M251.06,154.4s-5.58,15.81.56,18.49S276,153.68,276,153.68,265.85,142.27,251.06,154.4Z" style="fill:#eb9481"></path><path d="M270.76,135.19a4.84,4.84,0,0,1,.6,1.86c.31,3-1.53,5.59-3.56,7.53s-5,3.8-6.39,6.54a5,5,0,0,0-.57,3.49,4.62,4.62,0,0,0,2.6,2.79c1.23.64,2.83,1.13,3.49,2.47a3.91,3.91,0,0,1-.33,3.5c-1.48,2.71-4.9,3.58-7.2,5.4a15.63,15.63,0,0,0-5.23,7.62A15.4,15.4,0,0,0,255.86,189c.86,1.34,2,2.48,2.93,3.78A5.55,5.55,0,0,1,260,197c-.27,1.17-3.38,4.32-8.75,5.08-.39.06-.26.75.14.83a17.59,17.59,0,0,0,2.38.38,20.89,20.89,0,0,0,17.72-7,21.85,21.85,0,0,0,4.76-9.38,34.37,34.37,0,0,1,1.5-5.74,10.76,10.76,0,0,1,3.14-4.09c2.55-2.15,5.59-3.66,7.78-6.25a18.26,18.26,0,0,0,3.81-8.1,21.67,21.67,0,0,0-4.26-17.53C284.44,140.36,270.6,134.86,270.76,135.19Z" style="fill:#263238"></path><path d="M270.86,135.37a8.47,8.47,0,0,1,.74,3.77,7,7,0,0,1-1.18,3.28c-1.44,2.2-3.64,3.62-5.77,5.09s-4,2.94-4.92,5.3a5.72,5.72,0,0,0-.31,3.17,4.47,4.47,0,0,0,2,2.74c1.82,1.21,4.49,2.15,4.77,4.66s-2.07,4.23-3.75,5.54c-4.1,3.21-9.9,6.76-9.75,12.71a19.29,19.29,0,0,0,2.89,8.67c1.07,1.86,2.43,4.2,1.6,6.39,0,.08-.15,0-.12-.06.85-2.33-.93-4.44-2.1-6.3a20.45,20.45,0,0,1-2.93-7.19,9.93,9.93,0,0,1,1.66-7.34,23.22,23.22,0,0,1,5.69-5.54c1.09-.81,2.21-1.61,3.28-2.45a8.58,8.58,0,0,0,2.49-2.74,2.89,2.89,0,0,0-.58-3.4,15,15,0,0,0-3.15-2.13,6,6,0,0,1-2.33-2.39,5.3,5.3,0,0,1-.44-2.69,8.36,8.36,0,0,1,2.81-5.4c2.16-2,4.92-3.25,7-5.29a7,7,0,0,0,2-8.31A.16.16,0,0,1,270.86,135.37Z" style="fill:#263238"></path><path d="M290.94,145.78c4,4.92,4.49,11.83,2.17,17.58a21.8,21.8,0,0,1-6,8.27c-2.44,2.12-5.22,4-7.17,6.57-2.16,2.9-2.34,6.46-3,9.88a19.64,19.64,0,0,1-3.36,7.64A20.82,20.82,0,0,1,260,204a20.23,20.23,0,0,1-2.06.2c-.09,0-.09-.13,0-.13a20,20,0,0,0,14-7.42,19.37,19.37,0,0,0,3.71-7c.9-3.16.86-6.55,2.19-9.61,1.24-2.85,3.68-4.92,6.06-6.82,2.61-2.07,5.16-4.13,7-7a17.8,17.8,0,0,0,1-17.76c-3.36-6.24-10.08-9.27-16.52-11.29l-2.59-.8c-.1,0-.07-.18,0-.15C279.34,137.92,286.46,140.21,290.94,145.78Z" style="fill:#263238"></path><path d="M271.39,131.54a3,3,0,0,1,2.53,1.61c.14.71-2.41,5.67-3.75,6s-2.35-2-2.35-2Z" style="fill:#FFC727"></path><path d="M235.54,122.76c-2.49,20.13,9.29,23.89,13.63,24.42,3.94.48,17.42,1.63,22-18.14s-4-27.28-13-28.86S238,102.63,235.54,122.76Z" style="fill:#eb9481"></path><path d="M238,120.61a13.33,13.33,0,0,0,1.41-.22,2.27,2.27,0,0,0,1.38-.49.72.72,0,0,0,.05-.89,1.81,1.81,0,0,0-1.76-.52,2.68,2.68,0,0,0-1.72.85A.78.78,0,0,0,238,120.61Z" style="fill:#263238"></path><path d="M252,121a10.58,10.58,0,0,1-1.37-.35,2.3,2.3,0,0,1-1.34-.63.74.74,0,0,1,0-.89,1.82,1.82,0,0,1,1.81-.34,2.64,2.64,0,0,1,1.63,1A.78.78,0,0,1,252,121Z" style="fill:#263238"></path><path d="M248.47,125.89s.11.07.1.13c-.14,1.39-.06,3,1.17,3.56,0,0,0,.09,0,.08C248.2,129.33,248.12,127.19,248.47,125.89Z" style="fill:#263238"></path><path d="M249.82,124.51c2.26,0,2.13,4.5,0,4.52S247.93,124.53,249.82,124.51Z" style="fill:#263238"></path><path d="M250.7,124.78c.39.27.76.73,1.23.79s1-.39,1.35-.84c0,0,.08,0,.08.06,0,.86-.37,1.74-1.3,1.84s-1.44-.69-1.63-1.56C250.4,124.91,250.54,124.67,250.7,124.78Z" style="fill:#263238"></path><path d="M240.77,125.59s-.11.06-.11.12c0,1.4-.23,3-1.51,3.43,0,0,0,.09,0,.08C240.71,129.05,241,126.92,240.77,125.59Z" style="fill:#263238"></path><path d="M239.56,124.09c-2.24-.23-2.55,4.27-.47,4.49S241.44,124.29,239.56,124.09Z" style="fill:#263238"></path><path d="M238.6,124.33c-.37.21-.75.62-1.18.62s-.83-.52-1.11-1c0,0-.07,0-.07,0-.08.86.14,1.78.95,2s1.35-.5,1.62-1.34C238.86,124.49,238.75,124.24,238.6,124.33Z" style="fill:#263238"></path><path d="M248.71,137.34c-.32.34-.64.8-1.14.87a3.77,3.77,0,0,1-1.52-.29,0,0,0,0,0-.06.07,1.9,1.9,0,0,0,1.81.69,1.5,1.5,0,0,0,1-1.28C248.87,137.32,248.76,137.29,248.71,137.34Z" style="fill:#263238"></path><path d="M243,132.19a30.29,30.29,0,0,0-.34,3.07c0,.09.23.14.57.16,0,0,0,0,0,0a4.68,4.68,0,0,0,4.57-1.68.1.1,0,0,0-.14-.14,7.06,7.06,0,0,1-4.3,1.16c-.06-.28.67-3.55.52-3.57a9.05,9.05,0,0,0-2.25.47c.55-4.36,1.79-8.6,2.27-12.95a.14.14,0,0,0-.26-.07c-1.61,4.35-2.35,9.36-3,13.85C240.51,133.06,242.55,132.35,243,132.19Z" style="fill:#263238"></path><path d="M243.33,135a5.7,5.7,0,0,0,2.12,2,2.51,2.51,0,0,0,1.54.23c1.15-.19,1.27-1.22,1.14-2.12a6.18,6.18,0,0,0-.38-1.4A7.4,7.4,0,0,1,243.33,135Z" style="fill:#263238"></path><path d="M245.45,136.92a2.51,2.51,0,0,0,1.54.23c1.15-.19,1.27-1.22,1.14-2.12A2.65,2.65,0,0,0,245.45,136.92Z" style="fill:#ff9bbc"></path><path d="M269.69,128.84c-3.75.56-4.91-8-4.91-8s-16.06-2.35-17.71-15.34a22,22,0,0,1-10.85,12.31s.23-14.29,11.49-17.32c0,0,13.93-5.44,22.09,5.53S272.2,128.46,269.69,128.84Z" style="fill:#263238"></path><path d="M247,104.52a14.19,14.19,0,0,0,.85,5.93,14.72,14.72,0,0,0,3.14,5.19,12.1,12.1,0,0,0,1.1,1l.57.52.62.44c.42.28.83.59,1.26.85s.9.47,1.36.69c.22.11.45.23.68.33l.71.26,1.42.51c1,.24,1.95.44,2.93.62-.93-.38-1.88-.66-2.78-1l-1.34-.62-.67-.3c-.22-.12-.42-.25-.63-.38-.42-.25-.83-.5-1.26-.74s-.77-.58-1.16-.87l-.58-.43-.53-.49a14.32,14.32,0,0,1-1-1,17,17,0,0,1-3.16-4.83,18.76,18.76,0,0,1-1-2.76A17.75,17.75,0,0,1,247,104.52Z" style="fill:#263238"></path><path d="M250.56,134.67a6.94,6.94,0,0,1-5.3-8.26h0a6.94,6.94,0,1,1,7,8.42A6.65,6.65,0,0,1,250.56,134.67Zm-4.39-8.06a6,6,0,1,0,7.16-4.59,5.82,5.82,0,0,0-1.49-.13A6,6,0,0,0,246.17,126.61Z" style="fill:#455a64"></path><path d="M236,133.41c-2.84-.24-4.89-3.53-4.57-7.34a8.3,8.3,0,0,1,1.86-4.72,4.33,4.33,0,0,1,7.38.62,8.26,8.26,0,0,1,1.05,5c-.3,3.6-2.61,6.4-5.27,6.49A3.38,3.38,0,0,1,236,133.41ZM234,122a7.41,7.41,0,0,0-1.64,4.18c-.27,3.31,1.4,6.15,3.72,6.35s4.45-2.34,4.73-5.64a7.35,7.35,0,0,0-.93-4.4,3.69,3.69,0,0,0-2.8-1.94,2,2,0,0,0-.35,0A3.82,3.82,0,0,0,234,122Z" style="fill:#455a64"></path><path d="M245.43,127.23l.65-.66c-1-1-3.3-2.35-5.14-.69l.62.69C243.21,125.07,245.34,127.14,245.43,127.23Z" style="fill:#455a64"></path><path d="M274.54,131.52l.86-.36c-.17-.4-1.68-3.92-3.72-4.42s-12.84-.28-13.37-.27v.92c3.58,0,11.67-.12,13.14.25S274.14,130.55,274.54,131.52Z" style="fill:#455a64"></path><path d="M266.36,129.16s4.65-6.16,7.46-4.48-.84,10.73-4.26,11.86a3.43,3.43,0,0,1-4.53-2Z" style="fill:#eb9481"></path><path d="M272.71,127.25c.05,0,.06.07,0,.09-2.39.87-3.72,3-4.67,5.25a1.9,1.9,0,0,1,2.85-.41c.06,0,0,.14-.07.13a2.09,2.09,0,0,0-2.35.65,10.59,10.59,0,0,0-1.18,1.83c-.12.21-.49.08-.4-.16,0,0,0,0,0,0C267,131.56,269.46,127.43,272.71,127.25Z" style="fill:#263238"></path></g><g id="freepik--Lamp--inject-82"><rect x="77.42" y="152.07" width="5.31" height="294.43" style="fill:#263238"></rect><rect x="20.21" y="120.64" width="178.33" height="5.31" transform="translate(-55.15 113.46) rotate(-45)" style="fill:#263238"></rect><rect x="77.42" y="420.38" width="5.31" height="57.53" transform="translate(-369.07 529.22) rotate(-90)" style="fill:#263238"></rect><polygon points="174.84 77.93 192.62 61.23 175.88 47.63 162.56 60.15 174.84 77.93" style="fill:#FFC727"></polygon><polygon points="192.62 61.22 174.84 77.93 169.96 70.86 185.2 55.2 192.62 61.22" style="opacity:0.1"></polygon><polygon points="173 105.83 221 60.73 198.07 48.39 162.1 82.18 173 105.83" style="fill:#FFC727"></polygon></g><g id="freepik--Plant--inject-82"><path d="M416.12,362.81a71.55,71.55,0,0,0-2.3,13c.11.21.09,1,0,.8,0,.72-1.12.59-1.12-.12,0-.46,0-.92,0-1.37-2.55-3.16-6.25-5.16-9.24-7.91a17.44,17.44,0,0,1-5.06-8.05c-2.48-8.55-.15-17.6-3.13-26.13-2.57-7.35-7.19-13.73-11.09-20.39-4.12-7-7.16-14.44-7.46-22.69-.24-6.32.51-14.73,5.32-19.46,5.1-5,11.42-1.26,15.32,3.22,11.32,13,16.56,29.4,18.68,46.19,1.16,9.29,2.38,18.63,2.1,28A75.83,75.83,0,0,1,416.12,362.81Z" style="fill:#FFC727"></path><path d="M413.86,379.26a159.5,159.5,0,0,0-.31-26.32s.05-.05.05-.1c.14-7.11.71-14.19.43-21.32a127,127,0,0,0-3.14-22.87.07.07,0,0,0-.13,0A149.83,149.83,0,0,1,413.23,331q.22,6-.1,12.06c-.06,1.3-.19,2.62-.27,3.94h0a140.71,140.71,0,0,0-21.17-56c-.15-.23-.56,0-.41.25a146.7,146.7,0,0,1,17.23,41.53c-5.45-10.08-13.67-18.38-19.77-28.07,0-.05-.12,0-.09.06,5.48,10.79,14.53,19.29,20.3,29.92,1,4.33,1.82,8.71,2.43,13.11a145.86,145.86,0,0,1,1.31,18.2c-3.31-6.2-6.75-12.13-9.46-18.68-.08-.17-.33,0-.27.12,2.31,6.81,5.41,14.14,9.75,20,0,4.3-.1,8.62-.36,12.92-.67,11.49-2.64,22.83-3.54,34.28a.26.26,0,0,0,.52.06A261.94,261.94,0,0,0,413.86,379.26Z" style="fill:#263238"></path><path d="M401.66,290.65c0-.08-.15,0-.12.06,2.1,5.8,3.28,11.68,4.8,17.63a.22.22,0,0,0,.43-.07C406.15,302.23,404,296.21,401.66,290.65Z" style="fill:#263238"></path><path d="M455,315a87.25,87.25,0,0,1-4.82,9.92c-3.78,6.86-7.72,13.15-8.44,21.14-.31,3.57-.43,7.15-1.52,10.59a31.49,31.49,0,0,1-4.22,8.29c-4.09,6-9.21,11.11-13,17.3a72.66,72.66,0,0,0-8.64,20.84c-.1.4-.73.3-.63-.1,0,0,0-.06,0-.1s0,0,0-.08c-.6-17.13.77-34.4,6-50.82A176.44,176.44,0,0,1,428,330.82c2.8-6,6.29-11.68,11.2-16.12,3.19-2.88,10.11-8.32,14.65-5.44C456,310.65,455.81,312.83,455,315Z" style="fill:#FFC727"></path><path d="M437.73,353.81a139.61,139.61,0,0,1-10,14.32c-1.66,2.16-3.34,4.31-5,6.48-.78,1-1.66,2-2.38,3.14.46-1.8.9-3.6,1.36-5.4,2.21-8.66,4.33-17.39,7.62-25.71a173.55,173.55,0,0,1,11.9-23.33c.12-.2-.2-.34-.32-.15-3.62,6-7.3,11.9-10.34,18.18a96,96,0,0,0-4.39,10.79,167.34,167.34,0,0,1,5.84-23.05c0-.07-.07-.12-.1-.05a78.71,78.71,0,0,0-6.06,24s0,0,0,0c-.74,2.23-1.42,4.47-2.06,6.74-2.7,9.58-5.07,19.27-7.27,29a103.22,103.22,0,0,1,1.66-19,.12.12,0,0,0-.23,0,60.37,60.37,0,0,0-1.65,20.08q-1.25,5.55-2.43,11.1c-1.69,7.9-3.76,15.94-4.74,24a.16.16,0,0,0,.32.05c1.17-4.32,1.88-8.8,2.84-13.18s2-8.77,3-13.15c1.49-6.37,3.05-12.73,4.64-19.08,1.06-2.33,3.11-4.4,4.65-6.35,1.68-2.14,3.37-4.29,5-6.47a96.71,96.71,0,0,0,8.25-12.75C437.94,353.79,437.79,353.72,437.73,353.81Z" style="fill:#263238"></path><path d="M438.47,346.49A89.58,89.58,0,0,0,428.72,362c0,.07.08.14.12.07,3.28-5.13,6.5-10.31,9.78-15.46C438.67,346.5,438.53,346.41,438.47,346.49Z" style="fill:#263238"></path><path d="M365.53,331.22c2.22,3.82,4.75,8.41,3.8,13-.6,2.9-2.73,5.26-3.12,8.23-.86,6.54,5.67,10.87,10.39,14,11.76,7.72,27.9,14.6,30,30.36.08.56,1,.42,1-.12a.43.43,0,0,0,0-.11s.06-.05.06-.09a60.63,60.63,0,0,0-.22-24.08c-1.76-8.12-5.31-15.42-9.49-22.56-7.08-12.08-14.58-24.45-25.29-33.7-3-2.56-9-7.17-11.39-1.39C359,320.35,362.81,326.55,365.53,331.22Z" style="fill:#FFC727"></path><path d="M376.3,356.83c7.8,8.44,20.2,13.17,26.91,22.63-4-14.49-10.56-27.53-20.68-38.85a.3.3,0,0,1,.43-.43,76.52,76.52,0,0,1,16.9,24.48A109.55,109.55,0,0,0,392.58,346a.2.2,0,0,1,.35-.2,71,71,0,0,1,7.84,20.93c8.85,21.41,9.67,46.53,7.82,69.11,0,.32-.52.33-.51,0,.5-17.79.22-35.89-4.05-53.27-.09-.36-.18-.72-.28-1.08-7.3-10.18-19.65-14.9-27.59-24.57C376.08,356.87,376.21,356.73,376.3,356.83Z" style="fill:#263238"></path><path d="M374.49,349.57c4.09,3.76,8.12,7.6,12.23,11.36,0,0,0,.11-.06.08a60.12,60.12,0,0,1-12.42-11.19C374.11,349.65,374.32,349.42,374.49,349.57Z" style="fill:#263238"></path><path d="M373.84,333.3a128.9,128.9,0,0,0,12.25,16.85c.06.07,0,.17-.1.1a59.48,59.48,0,0,1-12.37-16.82A.13.13,0,0,1,373.84,333.3Z" style="fill:#263238"></path><polygon points="392.28 451.8 428.14 451.8 423.31 403.54 397.8 403.54 392.28 451.8" style="fill:#455a64"></polygon><polygon points="396.9 411.39 424.1 411.39 423.31 403.54 397.8 403.54 396.9 411.39" style="fill:#263238"></polygon><rect x="393.4" y="398.2" width="33.62" height="7.71" transform="translate(820.42 804.1) rotate(180)" style="fill:#455a64"></rect></g></svg>