<svg width="17" height="21" viewBox="0 0 17 21" fill="none" xmlns="http://www.w3.org/2000/svg">
<g clip-path="url(#clip0_0_401)">
<path d="M14.1271 11.0997C14.1271 9.36917 15.0589 7.85951 16.4413 7.05995C15.7195 6.16084 14.6336 5.35506 13.4367 5.11862C11.8045 4.79584 10.8735 5.33329 10.2712 5.54873C9.6689 5.76417 8.8689 5.95784 8.8689 5.95784C8.8689 5.95784 8.06967 5.76417 7.4666 5.54873C6.86507 5.33329 5.93403 4.79506 4.30185 5.11784C2.66967 5.44062 1.24438 6.82273 0.665068 8.05473C-0.452174 10.4324 0.00759654 13.4237 0.796869 15.5751C1.58537 17.7272 3.67043 20.7341 5.28729 20.976C6.43748 21.1478 7.14936 20.3413 8.8689 20.1367C10.5884 20.3413 11.3003 21.1478 12.4505 20.976C14.0674 20.7341 16.1524 17.7272 16.9409 15.5751C16.9601 15.5222 16.98 15.4677 16.9992 15.4133C15.3156 14.7273 14.1271 13.0543 14.1271 11.0997ZM8.46047 4.72506C8.46047 4.72506 10.0597 4.94051 11.5118 3.26673C12.9639 1.59295 12.5509 0.00939645 12.5509 0.00939645C12.5509 0.00939645 10.9517 -0.206048 9.49955 1.46773C8.04744 3.14151 8.46047 4.72506 8.46047 4.72506Z" fill="white"/>
</g>
<defs>
<clipPath id="clip0_0_401">
<rect width="17" height="21" fill="white"/>
</clipPath>
</defs>
</svg>
