<svg width="22" height="30" viewBox="0 0 22 30" fill="none" xmlns="http://www.w3.org/2000/svg">
<path id="congratulations" d="M21.5 10.6244C21.5 9.57443 20.8881 8.61137 19.925 8.26193C20.5369 7.47443 20.6256 6.33749 20.1005 5.37443C19.5755 4.41137 18.5255 3.97499 17.5625 4.06193C17.6494 3.09887 17.213 2.04887 16.25 1.52387C15.2869 0.998872 14.2369 1.08581 13.3625 1.69942C13.013 0.737998 12.05 0.12442 11 0.12442C9.94998 0.12442 8.98692 0.73636 8.63748 1.69942C7.76304 1.08748 6.71304 1.0005 5.74998 1.52551C4.78692 2.05053 4.35054 3.10052 4.43748 4.06358C3.47442 3.97662 2.42442 4.41303 1.89942 5.37608C1.37442 6.33914 1.46136 7.38913 2.07497 8.26357C1.20053 8.70164 0.499969 9.57607 0.499969 10.6261C0.499969 11.6761 1.11191 12.6391 2.07497 12.9886C1.46303 13.7761 1.37441 14.913 1.89942 15.8761C2.42442 16.8391 3.47442 17.2755 4.43748 17.1886C4.35053 18.1516 4.78693 19.2016 5.74998 19.7266C5.74998 19.7266 5.83694 19.7266 5.83694 19.8136L3.21193 28.2136L6.53749 26.463L8.28805 29.7886L11 21.1261H11.0869H11.1739L13.8858 29.8755L15.6364 26.55L18.962 28.3005L16.25 19.8136C16.25 19.8136 16.337 19.8136 16.337 19.7266C17.3 19.2016 17.7364 18.1516 17.6495 17.1886C18.6125 17.2755 19.6625 16.8391 20.1875 15.8761C20.7125 14.913 20.6256 13.863 20.012 12.9886C20.8881 12.6375 21.5 11.6744 21.5 10.6244L21.5 10.6244ZM11 16.7506C7.58749 16.7506 4.87555 14.0386 4.87555 10.6261C4.87555 7.21361 7.58749 4.50167 11 4.50167C14.4125 4.50167 17.1244 7.21361 17.1244 10.6261C17.1244 14.037 14.4125 16.7506 11 16.7506Z" fill="black"/>
</svg>
