<svg width="30" height="30" viewBox="0 0 30 30" fill="none" xmlns="http://www.w3.org/2000/svg">
<path d="M7.5675 6.00003C7.90217 5.95658 8.24154 6.03081 8.5275 6.21003L18.2775 11.7525L15.81 14.25L7.5675 6.00003ZM6.8175 6.75003C6.77048 6.91331 6.74774 7.08262 6.75 7.25253V22.7475C6.74774 22.9174 6.77048 23.0867 6.8175 23.25L15.0675 15L6.8175 6.75003ZM15.8175 15.75L7.5675 24C7.90233 24.0474 8.24304 23.9729 8.5275 23.79L18.2775 18.2475L15.8175 15.75ZM22.2075 13.995L19.2525 12.315L16.5525 15L19.245 17.6925L22.2 16.0125C23.175 15.4575 23.175 14.5425 22.2 13.9875L22.2075 13.995Z" fill="white"/>
</svg>
