<svg width="28" height="30" viewBox="0 0 28 30" fill="none" xmlns="http://www.w3.org/2000/svg">
<g id="lighter">
<path id="Vector" d="M14 7.12502C10.1494 7.12502 6.99944 10.275 6.99944 14.1256C6.99944 15.7006 7.52444 17.1 8.39888 18.2386C8.39888 18.2386 8.66138 18.5881 8.74833 18.6767C9.53583 19.6398 11.4603 22.3517 11.4603 24.6273H16.7103C16.7103 22.3517 18.6347 19.6398 19.4222 18.6767C19.5092 18.5897 19.7717 18.2386 19.7717 18.2386C20.6461 17.1017 21.1711 15.6136 21.1711 14.1256C21.0005 10.275 17.8505 7.12502 14 7.12502H14Z" fill="black"/>
<path id="Vector_2" d="M11.375 26.3745H16.625V29.8739H11.375V26.3745Z" fill="black"/>
<path id="Vector_3" d="M0.000559807 13.2495H5.25056V15H0.000559807V13.2495Z" fill="black"/>
<path id="Vector_4" d="M22.7494 13.2495H27.9994V15H22.7494V13.2495Z" fill="black"/>
<path id="Vector_5" d="M23.2908 3.60583L24.5278 4.84286L20.8151 8.55558L19.5781 7.31855L23.2908 3.60583Z" fill="black"/>
<path id="Vector_6" d="M13.1256 0.124451H14.8761V5.37445H13.1256V0.124451Z" fill="black"/>
<path id="Vector_7" d="M4.71884 3.59784L8.43156 7.31056L7.19453 8.54758L3.48181 4.83487L4.71884 3.59784Z" fill="black"/>
</g>
</svg>
