<svg width="40" height="40" viewBox="0 0 40 40" fill="none" xmlns="http://www.w3.org/2000/svg">
<g id="plant">
<path id="Vector" d="M1.25001 18.7508C1.12579 18.7508 0.875011 18.7508 0.750793 18.875C0.249229 18.9992 0.000793457 19.5008 0.000793457 20V28.7492C0.000793457 34.3742 5.62579 39.9992 11.2508 39.9992H15.0008V32L2.12419 19.1258C1.87576 18.875 1.62497 18.7508 1.24999 18.7508L1.25001 18.7508Z" fill="#F57059"/>
<path id="Vector_2" d="M39.2492 18.875C39.125 18.7508 38.8742 18.7508 38.75 18.7508C38.375 18.7508 38.1242 18.875 37.8758 19.1258L22.5008 34.5008V22.25C38.6258 19.8758 29.8766 0.750793 29.8766 0.750793C29.75 0.375793 29.2508 0.000793457 28.7493 0.000793457C28.25 0.000793457 27.7485 0.375793 27.6243 0.874993L24.3735 6.62419L21.1227 0.874993C21.0008 0.375775 20.4992 0.000793457 20 0.000793457C19.5008 0.000793457 18.9992 0.375793 18.875 0.874993L15.6242 6.62419L12.3734 0.874993C12.2492 0.375775 11.7499 0.000793457 11.2507 0.000793457C10.7515 0.000793457 10.2499 0.375793 10.1257 0.874993C10.1257 0.874993 1.37654 20 17.5015 22.3742L17.4992 39.9992H28.7492C34.3742 39.9992 39.9992 34.3742 39.9992 28.7492V20C39.9992 19.5008 39.7508 18.9992 39.2492 18.875L39.2492 18.875Z" fill="#F57059"/>
</g>
</svg>
