<svg width="44" height="44" viewBox="0 0 44 44" fill="none" xmlns="http://www.w3.org/2000/svg">
<g id="sun">
<path id="Vector" d="M40.375 32.6242L35.875 25.75V25.6258L43.2508 22L35.875 18.3742V18.25L40.375 11.3758L32.125 11.875L32.6242 3.62501L25.75 8.12501H25.6258L22 0.749207L18.3742 8.12501H18.25L11.3758 3.62501L11.875 11.875L3.625 11.3758L8.125 18.25V18.3742L0.749199 22L8.125 25.6258V25.75L3.625 32.6242L11.875 32.125L11.3758 40.375L18.25 35.875H18.3742L22 43.2508L25.6258 35.875H25.75L32.6242 40.375L32.125 32.125L40.375 32.6242ZM22 32.0008C16.4992 32.0008 11.9992 27.5008 11.9992 22C11.9992 16.4992 16.4992 11.9992 22 11.9992C27.5008 11.9992 32.0008 16.4992 32.0008 22C32.0008 27.5008 27.5008 32.0008 22 32.0008Z" fill="#F57059"/>
<path id="Vector_2" d="M22 14.5C17.875 14.5 14.5 17.875 14.5 22C14.5 26.125 17.875 29.5 22 29.5C26.125 29.5 29.5 26.125 29.5 22C29.5 17.875 26.125 14.5 22 14.5Z" fill="#F57059"/>
</g>
</svg>
