<svg width="40" height="39" viewBox="0 0 40 39" fill="none" xmlns="http://www.w3.org/2000/svg">
<path d="M32.375 4C32.4992 2.7508 32.4992 1.6258 32.4992 0.25H7.50084C7.50084 1.6258 7.50084 2.7508 7.62505 4H0.000854492V5.2492C0.000854492 16.375 14.1267 24.25 17.5017 25.9984L17.4993 30.2499C17.4993 32.3757 15.8751 33.9999 13.7493 33.9999H11.2485V38.9991H28.7493V33.9999H26.2485C24.1227 33.9999 22.4985 32.3757 22.4985 30.2499V26.0007C25.8735 24.2499 39.9993 16.3749 39.9993 5.25154V4.00234L32.375 4ZM2.62582 6.5008H7.87582C8.37504 12.1258 9.75082 16.1266 11.2508 19C7.25002 15.8758 3.12502 11.5 2.62582 6.5008ZM28.8758 19C30.3758 16.1242 31.7516 12.1258 32.2508 6.5008H37.5008C36.875 11.5 32.75 15.8758 28.8758 19Z" fill="#F57059"/>
</svg>
